#!OML:ASF F:\VICON\USERDATA\INSTALL\rory3\rory3.ASF
:FULLY-SPECIFIED
:DEGREES
335
root 0.405336 17.7811 -18.8587 -0.544351 1.73889 -0.929447
lowerback 8.44523 0.995405 -0.474023
upperback -0.175268 1.37975 1.99105
thorax -4.98387 0.719503 2.1649
lowerneck -14.7092 -5.05786 -9.33615
upperneck 13.4637 -6.09345 7.48075
head 7.05588 -2.77728 3.31009
rclavicle 5.86415e-015 9.93923e-015
rhumerus -26.3692 -6.00382 -78.1458
rradius 38.9086
rwrist 3.10827
rhand -14.6427 11.4993
rfingers 7.12502
rthumb 11.5094 -18.1647
lclavicle 5.86415e-015 9.93923e-015
lhumerus -34.5474 9.56234 80.6184
lradius 30.5486
lwrist -1.07453
lhand -20.4339 23.6193
lfingers 7.12502
lthumb 5.92088 53.5166
rfemur -9.94299 4.56659 21.3979
rtibia 22.436
rfoot -22.1057 -13.4049
rtoes 0.386589
lfemur -12.0899 -5.98678 -16.4252
ltibia 23.01
lfoot -26.3922 8.86829
ltoes -8.34803
336
root 0.408377 17.7809 -18.8643 -0.63031 1.63564 -1.00699
lowerback 8.48176 0.999955 -0.451067
upperback -0.243213 1.39025 2.00686
thorax -5.07586 0.725238 2.16637
lowerneck -14.8519 -4.91436 -9.49983
upperneck 13.8179 -5.90768 7.71555
head 7.19119 -2.6738 3.43581
rclavicle 2.48481e-015 6.36111e-015
rhumerus -26.6912 -6.04342 -78.2702
rradius 38.7883
rwrist 3.19435
rhand -14.272 11.1751
rfingers 7.12502
rthumb 11.8668 -18.4686
lclavicle 2.48481e-015 6.36111e-015
lhumerus -34.688 9.77268 80.6403
lradius 30.0588
lwrist -1.56168
lhand -20.0526 22.8278
lfingers 7.12502
lthumb 6.28906 52.7144
rfemur -9.77771 4.67969 21.4899
rtibia 22.2535
rfoot -22.0413 -13.6337
rtoes 0.133538
lfemur -11.984 -6.15131 -16.3528
ltibia 22.9738
lfoot -26.6611 8.90033
ltoes -7.97019
337
root 0.407655 17.7813 -18.8716 -0.628392 1.60074 -1.00732
lowerback 8.39493 0.992037 -0.545096
upperback -0.265089 1.37048 2.01162
thorax -5.05134 0.718045 2.22792
lowerneck -15.0742 -4.92773 -9.37304
upperneck 14.0358 -5.92753 7.61147
head 7.29493 -2.68076 3.37617
rclavicle -1.85367e-014 -2.42517e-014
rhumerus -26.9634 -6.05478 -78.4177
rradius 38.7298
rwrist 3.10287
rhand -14.0558 11.5041
rfingers 7.12502
rthumb 12.0753 -18.1275
lclavicle -1.85367e-014 -2.42517e-014
lhumerus -34.7444 9.82212 80.8138
lradius 29.7995
lwrist -1.81702
lhand -20.2455 23.2036
lfingers 7.12502
lthumb 6.10284 53.0957
rfemur -9.73525 4.75137 21.5074
rtibia 22.125
rfoot -21.9663 -13.9489
rtoes -0.45418
lfemur -11.9543 -6.17891 -16.3489
ltibia 22.9145
lfoot -27.202 8.69181
ltoes -7.72254
338
root 0.401292 17.7832 -18.8889 -0.673139 1.81553 -0.93335
lowerback 8.50763 0.915841 -0.72078
upperback -0.293235 1.25148 1.99613
thorax -5.14261 0.664401 2.32484
lowerneck -15.1617 -5.00017 -9.18003
upperneck 13.9117 -6.0211 7.41495
head 7.26559 -2.73043 3.26636
rclavicle 5.86415e-015 1.98785e-014
rhumerus -27.2278 -6.13666 -78.5845
rradius 38.6568
rwrist 3.08984
rhand -14.0482 12.0489
rfingers 7.12502
rthumb 12.0826 -17.5822
lclavicle 5.86415e-015 1.98785e-014
lhumerus -34.7266 9.73275 81.0874
lradius 29.6841
lwrist -1.77598
lhand -20.7263 24.5322
lfingers 7.12502
lthumb 5.63857 54.4372
rfemur -9.68101 4.72081 21.4551
rtibia 22.083
rfoot -21.9663 -14.174
rtoes -0.0505561
lfemur -11.9301 -6.18156 -16.4065
ltibia 22.7966
lfoot -27.2532 8.33172
ltoes -7.56851
339
root 0.397613 17.7893 -18.903 -0.709755 1.96276 -0.936066
lowerback 8.55633 0.837211 -0.768729
upperback -0.303384 1.14173 1.98859
thorax -5.17631 0.611659 2.35781
lowerneck -15.3321 -5.06177 -9.12283
upperneck 13.8674 -6.09335 7.37147
head 7.28368 -2.76203 3.23121
rclavicle -7.95139e-016 1.35174e-014
rhumerus -27.3388 -6.31477 -78.7476
rradius 38.4035
rwrist 3.33189
rhand -14.011 11.957
rfingers 7.12502
rthumb 12.1185 -17.672
lclavicle -7.95139e-016 1.35174e-014
lhumerus -34.9018 9.82358 81.1454
lradius 29.5944
lwrist -2.09476
lhand -20.0819 22.3731
lfingers 7.12502
lthumb 6.26072 52.2605
rfemur -9.6099 4.72313 21.4827
rtibia 22.0313
rfoot -21.9595 -14.3781
rtoes 0.855115
lfemur -11.9225 -6.19515 -16.3834
ltibia 22.678
lfoot -26.8042 8.2352
ltoes -8.1169
340
root 0.399281 17.7903 -18.912 -0.661281 1.93554 -0.857419
lowerback 8.3549 0.828252 -0.870289
upperback -0.192124 1.11716 1.9772
thorax -4.94685 0.599478 2.40835
lowerneck -15.696 -5.11876 -9.04683
upperneck 13.7853 -6.13925 7.29861
head 7.31871 -2.77843 3.18324
rclavicle -1.05853e-014 -1.03368e-014
rhumerus -27.1193 -6.54358 -78.848
rradius 38.0143
rwrist 3.66055
rhand -13.8683 11.617
rfingers 7.12502
rthumb 12.2561 -18.0039
lclavicle -1.05853e-014 -1.03368e-014
lhumerus -34.8614 9.80533 81.3787
lradius 29.6399
lwrist -2.19253
lhand -19.786 21.5652
lfingers 7.12502
lthumb 6.5464 51.444
rfemur -9.65224 4.7408 21.3866
rtibia 21.9473
rfoot -21.8091 -14.5707
rtoes 1.78225
lfemur -11.9908 -6.2876 -16.4669
ltibia 22.5927
lfoot -26.4529 8.45702
ltoes -8.80975
341
root 0.401247 17.7879 -18.9202 -0.640702 1.89903 -0.896534
lowerback 8.23841 0.803893 -0.871925
upperback -0.182606 1.08569 2.0052
thorax -4.87031 0.583689 2.44346
lowerneck -15.8683 -5.06624 -9.04586
upperneck 13.9079 -6.05945 7.30224
head 7.38156 -2.7362 3.19185
rclavicle -4.72114e-015 1.74931e-014
rhumerus -27.1726 -6.53924 -78.9759
rradius 37.7131
rwrist 3.70146
rhand -13.9442 11.6116
rfingers 7.12502
rthumb 12.1829 -18.0136
lclavicle -4.72114e-015 1.74931e-014
lhumerus -34.9527 9.76384 81.5679
lradius 29.5284
lwrist -2.56614
lhand -19.8086 20.9821
lfingers 7.12502
lthumb 6.52461 50.8616
rfemur -9.67412 4.81449 21.4193
rtibia 21.8526
rfoot -21.7003 -14.8274
rtoes 1.82289
lfemur -12.0213 -6.3804 -16.4214
ltibia 22.5306
lfoot -26.3753 8.43666
ltoes -8.61673
342
root 0.40182 17.7891 -18.9337 -0.663976 1.9216 -1.13235
lowerback 8.35478 0.762544 -0.63718
upperback -0.332976 1.05794 2.04124
thorax -5.08811 0.567167 2.35097
lowerneck -15.7049 -5.0065 -9.03638
upperneck 14.0906 -6.01466 7.36014
head 7.41077 -2.71269 3.21827
rclavicle 1.53064e-014 1.78906e-014
rhumerus -27.6872 -6.61315 -79.1139
rradius 37.6397
rwrist 3.67589
rhand -14.24 11.6552
rfingers 7.12502
rthumb 11.8977 -17.9867
lclavicle 1.53064e-014 1.78906e-014
lhumerus -35.1462 9.69846 81.6211
lradius 29.1783
lwrist -3.34665
lhand -19.8414 19.6283
lfingers 7.12502
lthumb 6.4929 49.5088
rfemur -9.65015 4.93275 21.6859
rtibia 21.7807
rfoot -21.6988 -15.0147
rtoes 2.25121
lfemur -12.0633 -6.43264 -16.1492
ltibia 22.4866
lfoot -26.6043 8.08253
ltoes -6.99668
